<svg width="640" height="420" viewBox="0 0 640 420" xmlns="http://www.w3.org/2000/svg" role="img" aria-label="Team photo placeholder">
  <defs>
    <linearGradient id="bg" x1="0" y1="0" x2="1" y2="1">
      <stop offset="0" stop-color="#cfdaf2"/>
      <stop offset="0.5" stop-color="#b9d1f2"/>
      <stop offset="1" stop-color="#a9c0ee"/>
    </linearGradient>
    <linearGradient id="accent" x1="0" y1="0" x2="1" y2="0">
      <stop offset="0" stop-color="#7a3bd1"/>
      <stop offset="1" stop-color="#b07bf7"/>
    </linearGradient>
  </defs>
  <rect width="640" height="420" rx="28" fill="url(#bg)"/>
  <circle cx="120" cy="120" r="78" fill="#f7e9ff" opacity="0.6"/>
  <circle cx="540" cy="70" r="46" fill="#ffffff" opacity="0.4"/>
  <path d="M0 320 C120 270 220 340 320 310 C420 280 520 300 640 260 V420 H0 Z" fill="#e9f0ff"/>
  <g transform="translate(90 165)">
    <circle cx="40" cy="40" r="36" fill="#2f2f34"/>
    <rect x="10" y="80" width="80" height="120" rx="18" fill="#3f4150"/>
    <rect x="25" y="95" width="50" height="18" rx="9" fill="url(#accent)"/>
  </g>
  <g transform="translate(260 140)">
    <circle cx="55" cy="55" r="46" fill="#1f1f27"/>
    <rect x="18" y="104" width="90" height="140" rx="20" fill="#2d2f3c"/>
    <rect x="32" y="128" width="60" height="20" rx="10" fill="url(#accent)"/>
  </g>
  <g transform="translate(450 175)">
    <circle cx="40" cy="40" r="34" fill="#2a2b33"/>
    <rect x="8" y="78" width="78" height="112" rx="18" fill="#3a3c49"/>
    <rect x="22" y="98" width="50" height="16" rx="8" fill="url(#accent)"/>
  </g>
  <rect x="40" y="30" width="140" height="10" rx="5" fill="#ffffff" opacity="0.7"/>
  <rect x="40" y="46" width="90" height="8" rx="4" fill="#ffffff" opacity="0.5"/>
</svg>
